<svg xmlns="http://www.w3.org/2000/svg" width="131" height="149" viewBox="0 0 131 149">
  <g id="Groupe_22" data-name="Groupe 22" transform="translate(-1545 -229)">
    <g id="Ellipse_26" data-name="Ellipse 26" transform="translate(1640 229)" fill="#fff" stroke="#707070" stroke-width="1">
      <circle cx="18" cy="18" r="18" stroke="none"/>
      <circle cx="18" cy="18" r="17.5" fill="none"/>
    </g>
    <g id="Ellipse_29" data-name="Ellipse 29" transform="translate(1593 229)" fill="#fff" stroke="#707070" stroke-width="1">
      <circle cx="18" cy="18" r="18" stroke="none"/>
      <circle cx="18" cy="18" r="17.5" fill="none"/>
    </g>
    <g id="Ellipse_32" data-name="Ellipse 32" transform="translate(1545 229)" fill="#fff" stroke="#707070" stroke-width="1">
      <circle cx="18" cy="18" r="18" stroke="none"/>
      <circle cx="18" cy="18" r="17.5" fill="none"/>
    </g>
    <g id="Ellipse_27" data-name="Ellipse 27" transform="translate(1640 283)" fill="#fff" stroke="#707070" stroke-width="1">
      <ellipse cx="18" cy="18.5" rx="18" ry="18.5" stroke="none"/>
      <ellipse cx="18" cy="18.5" rx="17.5" ry="18" fill="none"/>
    </g>
    <g id="Ellipse_30" data-name="Ellipse 30" transform="translate(1593 283)" fill="#fff" stroke="#707070" stroke-width="1">
      <ellipse cx="18" cy="18.5" rx="18" ry="18.5" stroke="none"/>
      <ellipse cx="18" cy="18.5" rx="17.5" ry="18" fill="none"/>
    </g>
    <g id="Ellipse_33" data-name="Ellipse 33" transform="translate(1545 283)" fill="#fff" stroke="#707070" stroke-width="1">
      <ellipse cx="18" cy="18.5" rx="18" ry="18.5" stroke="none"/>
      <ellipse cx="18" cy="18.5" rx="17.5" ry="18" fill="none"/>
    </g>
    <g id="Ellipse_28" data-name="Ellipse 28" transform="translate(1640 342)" fill="#fff" stroke="#707070" stroke-width="1">
      <circle cx="18" cy="18" r="18" stroke="none"/>
      <circle cx="18" cy="18" r="17.5" fill="none"/>
    </g>
    <g id="Ellipse_31" data-name="Ellipse 31" transform="translate(1593 342)" fill="#fff" stroke="#707070" stroke-width="1">
      <circle cx="18" cy="18" r="18" stroke="none"/>
      <circle cx="18" cy="18" r="17.5" fill="none"/>
    </g>
    <g id="Ellipse_34" data-name="Ellipse 34" transform="translate(1545 342)" fill="#fff" stroke="#707070" stroke-width="1">
      <circle cx="18" cy="18" r="18" stroke="none"/>
      <circle cx="18" cy="18" r="17.5" fill="none"/>
    </g>
  </g>
</svg>
