<svg id="Calque_1" data-name="Calque 1" xmlns="http://www.w3.org/2000/svg" viewBox="0 0 2227 1081"><defs><style>.cls-1{stroke:#000;stroke-miterlimit:10;}.cls-2{fill:#de1cbd;}.cls-3{fill:#fcf250;}.cls-4{fill:#8ca695;}.cls-5{fill:#dd0b3b;}.cls-6{fill:#ea8932;}.cls-7{fill:#1c528b;}.cls-8{fill:#dd1dbb;}.cls-9{fill:red;}</style></defs><title>backgroung</title><rect class="cls-1" x="155" y="0.5" width="1920" height="1080"/><circle class="cls-2" cx="167" cy="564.5" r="167"/><circle class="cls-3" cx="486" cy="233" r="94"/><circle class="cls-3" cx="674" cy="233" r="94"/><circle class="cls-3" cx="1851" cy="102.5" r="79"/><circle class="cls-4" cx="1866.13" cy="260.5" r="79"/><circle class="cls-4" cx="1358.13" cy="118.5" r="79"/><circle class="cls-4" cx="1516.13" cy="118.5" r="79"/><circle class="cls-4" cx="1516.13" cy="276.5" r="79"/><circle class="cls-5" cx="486" cy="835.5" r="94"/><circle class="cls-5" cx="674" cy="835.5" r="94"/><circle class="cls-5" cx="1304" cy="959.5" r="94"/><circle class="cls-5" cx="1492" cy="959.5" r="94"/><circle class="cls-5" cx="1750" cy="959.5" r="94"/><circle class="cls-5" cx="990" cy="573.97" r="66.47"/><circle class="cls-6" cx="1289.18" cy="540.5" r="66.47"/><circle class="cls-5" cx="2053.75" cy="254.25" r="72.75"/><circle class="cls-2" cx="2060" cy="564.5" r="167"/><rect class="cls-7" x="674" y="397.5" width="34" height="220"/><rect class="cls-8" x="952.47" y="14.5" width="104" height="104"/><rect class="cls-8" x="938" y="640.5" width="104" height="104"/><rect class="cls-9" x="155" y="976.5" width="104" height="104"/><rect class="cls-6" x="1064.56" y="309.5" width="76" height="76"/><polygon class="cls-8" points="556 540.5 438.73 553.62 368.73 458.62 416 350.5 533.27 337.38 603.27 432.38 556 540.5"/><polygon class="cls-8" points="556 539.5 438.73 552.62 368.73 457.62 416 349.5 533.27 336.38 603.27 431.38 556 539.5"/><polygon class="cls-6" points="1286.01 601.5 1355.55 737.83 1202.71 729.89 1286.01 601.5"/><polygon class="cls-6" points="1558.01 413.17 1627.55 549.5 1474.71 541.55 1558.01 413.17"/></svg>