<svg id="Calque_1" data-name="Calque 1" xmlns="http://www.w3.org/2000/svg" viewBox="0 0 1920 1080"><defs><style>.cls-1{stroke:#000;stroke-miterlimit:10;}.cls-2{fill:#de1cbd;}.cls-3{fill:#fcf250;}.cls-4{fill:#8ca695;}.cls-5{fill:#dd0b3b;}.cls-6{fill:#ea8932;}.cls-7{fill:#1c528b;}.cls-8{fill:#dd1dbb;}.cls-9{fill:red;}</style></defs><title>background</title><rect class="cls-1" width="1920" height="1080"/><circle class="cls-2" cx="12" cy="564" r="167"/><circle class="cls-3" cx="331" cy="232.5" r="94"/><circle class="cls-3" cx="519" cy="232.5" r="94"/><circle class="cls-3" cx="1696" cy="102" r="79"/><circle class="cls-4" cx="1711.13" cy="260" r="79"/><circle class="cls-4" cx="1203.13" cy="118" r="79"/><circle class="cls-4" cx="1361.13" cy="118" r="79"/><circle class="cls-4" cx="1361.13" cy="276" r="79"/><circle class="cls-5" cx="331" cy="835" r="94"/><circle class="cls-5" cx="519" cy="835" r="94"/><circle class="cls-5" cx="1149" cy="959" r="94"/><circle class="cls-5" cx="1337" cy="959" r="94"/><circle class="cls-5" cx="1595" cy="959" r="94"/><circle class="cls-5" cx="835" cy="573.47" r="66.47"/><circle class="cls-6" cx="1124.13" cy="540" r="66.47"/><circle class="cls-5" cx="1898.75" cy="253.75" r="72.75"/><circle class="cls-2" cx="1905" cy="564" r="167"/><rect class="cls-7" x="519" y="397" width="34" height="220"/><rect class="cls-8" x="797.47" y="14" width="104" height="104"/><rect class="cls-8" x="783" y="640" width="104" height="104"/><rect class="cls-9" y="976" width="104" height="104"/><rect class="cls-6" x="909.56" y="309" width="76" height="76"/><polygon class="cls-6" points="1126.42 600.88 1202.94 733.42 1049.9 733.42 1126.42 600.88"/><polygon class="cls-6" points="1398.42 412.55 1474.94 545.09 1321.9 545.09 1398.42 412.55"/></svg>